<svg width="32" height="32" viewBox="0 0 32 32" fill="none" xmlns="http://www.w3.org/2000/svg">
<path d="M16.004 0H15.996C7.174 0 0 7.176 0 16C0 19.5 1.128 22.744 3.046 25.378L1.052 31.322L7.202 29.356C9.732 31.032 12.75 32 16.004 32C24.826 32 32 24.822 32 16C32 7.178 24.826 0 16.004 0Z" fill="white"/>
<path d="M25.3141 22.5963C24.9281 23.6863 23.3961 24.5903 22.1741 24.8543C21.3381 25.0323 20.2461 25.1743 16.5701 23.6503C11.8681 21.7023 8.8401 16.9243 8.6041 16.6143C8.3781 16.3043 6.7041 14.0843 6.7041 11.7883C6.7041 9.49231 7.8701 8.37431 8.3401 7.89431C8.7261 7.50031 9.3641 7.32031 9.9761 7.32031C10.1741 7.32031 10.3521 7.33031 10.5121 7.33831C10.9821 7.35831 11.2181 7.38631 11.5281 8.12831C11.9141 9.05831 12.8541 11.3543 12.9661 11.5903C13.0801 11.8263 13.1941 12.1463 13.0341 12.4563C12.8841 12.7763 12.7521 12.9183 12.5161 13.1903C12.2801 13.4623 12.0561 13.6703 11.8201 13.9623C11.6041 14.2163 11.3601 14.4883 11.6321 14.9583C11.9041 15.4183 12.8441 16.9523 14.2281 18.1843C16.0141 19.7743 17.4621 20.2823 17.9801 20.4983C18.3661 20.6583 18.8261 20.6203 19.1081 20.3203C19.4661 19.9343 19.9081 19.2943 20.3581 18.6643C20.6781 18.2123 21.0821 18.1563 21.5061 18.3163C21.9381 18.4663 24.2241 19.5963 24.6941 19.8303C25.1641 20.0663 25.4741 20.1783 25.5881 20.3763C25.7001 20.5743 25.7001 21.5043 25.3141 22.5963Z" fill="#1D323D"/>
</svg>
