<svg width="52" height="52" viewBox="0 0 52 52" fill="none" xmlns="http://www.w3.org/2000/svg">
<path d="M38.8723 38.6781C45.8382 31.6597 45.7957 20.3233 38.7773 13.3574C31.759 6.39145 20.4225 6.43397 13.4566 13.4523C6.49073 20.4707 6.53324 31.8071 13.5516 38.773C20.5699 45.7389 31.9064 45.6964 38.8723 38.6781Z" fill="#F04438"/>
<path fill-rule="evenodd" clip-rule="evenodd" d="M21.3624 24.6628L27.5955 30.8494L32.5124 35.7294C33.444 36.654 34.9624 36.6484 35.887 35.7167C36.8117 34.7851 36.806 33.2668 35.8744 32.3422L30.9576 27.462L24.7245 21.2755L19.8076 16.3955C18.876 15.4708 17.3577 15.4765 16.433 16.4081C15.5084 17.3397 15.5141 18.858 16.4457 19.7827L21.3624 24.6628Z" fill="white"/>
<path fill-rule="evenodd" clip-rule="evenodd" d="M24.7604 30.86L30.947 24.6269L35.827 19.71C36.7516 18.7784 36.7459 17.2601 35.8143 16.3354C34.8827 15.4108 33.3644 15.4165 32.4398 16.3481L27.5596 21.2648L21.3731 27.498L16.493 32.4149C15.5684 33.3465 15.5741 34.8648 16.5057 35.7894C17.4373 36.7141 18.9556 36.7084 19.8803 35.7768L24.7604 30.86Z" fill="white"/>
</svg>
