<svg width="59" height="56" viewBox="0 0 59 56" fill="none" xmlns="http://www.w3.org/2000/svg">
<rect width="59" height="56" fill="#1E1E1E"/>
<rect width="390" height="834" transform="translate(-27 -507)" fill="#1D323D"/>
<rect x="-7" y="-7" width="350" height="70" rx="12" fill="#1D323D"/>
<rect x="-6.5" y="-6.5" width="349" height="69" rx="11.5" stroke="white" stroke-opacity="0.11"/>
<rect width="59" height="56" rx="8" fill="#223B48"/>
<path fill-rule="evenodd" clip-rule="evenodd" d="M14.3874 18.7204C15.1688 17.939 16.2286 17.5 17.3337 17.5H34.0003C35.1054 17.5 36.1652 17.939 36.9466 18.7204C37.728 19.5018 38.167 20.5616 38.167 21.6667V24.1667H40.667C42.9682 24.1667 44.8337 26.0321 44.8337 28.3333V38.3333C44.8337 40.6345 42.9682 42.5 40.667 42.5H24.0003C21.6991 42.5 19.8337 40.6345 19.8337 38.3333V35.8333H17.3337C16.2286 35.8333 15.1688 35.3943 14.3874 34.6129C13.606 33.8315 13.167 32.7717 13.167 31.6667V21.6667C13.167 20.5616 13.606 19.5018 14.3874 18.7204ZM21.5003 38.3333C21.5003 39.714 22.6196 40.8333 24.0003 40.8333H40.667C42.0477 40.8333 43.167 39.714 43.167 38.3333V28.3333C43.167 26.9526 42.0477 25.8333 40.667 25.8333H24.0003C22.6196 25.8333 21.5003 26.9526 21.5003 28.3333V38.3333ZM36.5003 24.1667H24.0003C21.6991 24.1667 19.8337 26.0321 19.8337 28.3333V34.1667H17.3337C16.6706 34.1667 16.0347 33.9033 15.5659 33.4344C15.0971 32.9656 14.8337 32.3297 14.8337 31.6667V21.6667C14.8337 21.0036 15.0971 20.3677 15.5659 19.8989C16.0347 19.4301 16.6706 19.1667 17.3337 19.1667H34.0003C34.6634 19.1667 35.2993 19.4301 35.7681 19.8989C36.2369 20.3677 36.5003 21.0036 36.5003 21.6667V24.1667Z" fill="#F3F3F3"/>
<path d="M32.5 29C30.0188 29 28 31.0188 28 33.5C28 35.9812 30.0188 38 32.5 38C34.9812 38 37 35.9812 37 33.5C37 31.0188 34.9812 29 32.5 29ZM35.015 32.3158L32.1391 35.1692C31.9699 35.3383 31.6992 35.3496 31.5188 35.1805L29.9962 33.7932C29.8158 33.6241 29.8045 33.3421 29.9624 33.1617C30.1316 32.9812 30.4135 32.9699 30.594 33.1391L31.8008 34.2444L34.3722 31.6729C34.5526 31.4925 34.8346 31.4925 35.015 31.6729C35.1955 31.8534 35.1955 32.1353 35.015 32.3158Z" fill="#73E5FF"/>
</svg>
