<svg width="59" height="56" viewBox="0 0 59 56" fill="none" xmlns="http://www.w3.org/2000/svg">
<rect width="59" height="56" fill="#1E1E1E"/>
<rect width="390" height="834" transform="translate(-27 -601)" fill="#1D323D"/>
<rect x="-7" y="-7" width="350" height="70" rx="12" fill="#1D323D"/>
<rect x="-6.5" y="-6.5" width="349" height="69" rx="11.5" stroke="white" stroke-opacity="0.11"/>
<rect width="59" height="56" rx="8" fill="#223B48"/>
<path d="M36.1924 32.8076C34.7765 31.3917 33.0912 30.3435 31.2524 29.709C33.2218 28.3526 34.5156 26.0825 34.5156 23.5156C34.5156 19.3715 31.1441 16 27 16C22.8559 16 19.4844 19.3715 19.4844 23.5156C19.4844 26.0825 20.7782 28.3526 22.7477 29.709C20.9089 30.3435 19.2236 31.3917 17.8076 32.8076C15.3523 35.263 14 38.5276 14 42H16.0312C16.0312 35.9518 20.9518 31.0312 27 31.0312C30.108 31.0312 32.9183 32.3306 34.916 34.4146C35 34 36 33 36.1924 32.8076ZM27 29C23.9759 29 21.5156 26.5397 21.5156 23.5156C21.5156 20.4915 23.9759 18.0312 27 18.0312C30.0241 18.0312 32.4844 20.4915 32.4844 23.5156C32.4844 26.5397 30.0241 29 27 29Z" fill="white"/>
<path d="M40.5 33C38.0188 33 36 35.0188 36 37.5C36 39.9812 38.0188 42 40.5 42C42.9812 42 45 39.9812 45 37.5C45 35.0188 42.9812 33 40.5 33ZM43.015 36.3158L40.1391 39.1692C39.9699 39.3383 39.6992 39.3496 39.5188 39.1805L37.9962 37.7932C37.8158 37.6241 37.8045 37.3421 37.9624 37.1617C38.1316 36.9812 38.4135 36.9699 38.594 37.1391L39.8008 38.2444L42.3722 35.6729C42.5526 35.4925 42.8346 35.4925 43.015 35.6729C43.1955 35.8534 43.1955 36.1353 43.015 36.3158Z" fill="#73E5FF"/>
</svg>
