<svg width="49" height="49" viewBox="0 0 49 49" fill="none" xmlns="http://www.w3.org/2000/svg">
<path d="M24.5 0C10.9912 0 0 10.9912 0 24.5C0 38.0088 10.9912 49 24.5 49C38.0088 49 49 38.0088 49 24.5C49 10.9912 38.0088 0 24.5 0ZM38.193 18.0526L22.5351 33.5877C21.614 34.5088 20.1404 34.5702 19.1579 33.6491L10.8684 26.0965C9.88596 25.1754 9.82456 23.6404 10.6842 22.6579C11.6053 21.6754 13.1404 21.614 14.1228 22.5351L20.693 28.5526L34.693 14.5526C35.6754 13.5702 37.2105 13.5702 38.193 14.5526C39.1754 15.5351 39.1754 17.0702 38.193 18.0526Z" fill="#73E5FF"/>
</svg>
