<svg width="24" height="24" viewBox="0 0 24 24" fill="none" xmlns="http://www.w3.org/2000/svg">
<rect width="24" height="24" fill="#1E1E1E"/>
<rect width="390" height="972" transform="translate(-32 -893)" fill="#1D323D"/>
<rect x="-12" y="-24" width="350" height="72" rx="12" fill="white"/>
<circle cx="12" cy="12" r="11.5" fill="#F7F7F7" stroke="#D0D5DD"/>
<path d="M15.875 18H9.125C8.505 18 8 17.4955 8 16.875V11.625C8 11.0045 8.505 10.5 9.125 10.5H15.875C16.495 10.5 17 11.0045 17 11.625V16.875C17 17.4955 16.495 18 15.875 18ZM9.125 11.25C8.91846 11.25 8.75 11.418 8.75 11.625V16.875C8.75 17.082 8.91846 17.25 9.125 17.25H15.875C16.0815 17.25 16.25 17.082 16.25 16.875V11.625C16.25 11.418 16.0815 11.25 15.875 11.25H9.125Z" fill="#1D323D"/>
<path d="M15.124 11.25C14.917 11.25 14.749 11.082 14.749 10.875V9C14.749 7.75946 13.7396 6.75 12.499 6.75C11.2585 6.75 10.249 7.75946 10.249 9V10.875C10.249 11.082 10.081 11.25 9.87402 11.25C9.66702 11.25 9.49902 11.082 9.49902 10.875V9C9.49902 7.34546 10.8445 6 12.499 6C14.1536 6 15.499 7.34546 15.499 9V10.875C15.499 11.082 15.331 11.25 15.124 11.25Z" fill="#1D323D"/>
</svg>
