<svg width="102" height="32" viewBox="0 0 102 32" fill="none" xmlns="http://www.w3.org/2000/svg">
<path d="M39.5324 0H8.3536L4.17676 15.5892H19.766C28.3757 15.5892 37.2254 8.60975 39.5324 0Z" fill="white"/>
<path d="M0 31.1752H31.1784L35.3556 15.5859H19.7663C11.1567 15.5859 2.30693 22.5654 0 31.1752Z" fill="white"/>
<path d="M50.193 21.2548L58.4483 11.4207V9.3125H48.2948L47.7928 11.1926V11.2063H55.8702L47.5967 21.0219V23.1303H58.138L58.6444 21.2548H50.193Z" fill="white"/>
<path d="M67.8152 20.123C67.5688 20.6067 67.1628 20.9992 66.5971 21.305C66.0176 21.6146 65.3695 21.7731 64.7125 21.7658C64.1223 21.7753 63.5379 21.6472 63.0057 21.3916C62.5184 21.159 62.1 20.8036 61.7916 20.3603C61.4831 19.9064 61.2933 19.3823 61.2395 18.8361H69.1206C69.1342 18.7084 69.1479 18.5715 69.1616 18.4254C69.1752 18.2842 69.1799 18.1379 69.1799 17.9965C69.1661 16.9971 68.9517 16.1027 68.5364 15.3224C68.1372 14.5587 67.5276 13.9253 66.7798 13.4971C65.9952 13.0545 65.1067 12.8292 64.206 12.8445C63.2022 12.8445 62.3078 13.0651 61.5226 13.5065C61.1516 13.7108 60.8119 13.9674 60.5141 14.2686C60.1857 14.5904 59.9073 14.9596 59.6881 15.3638C59.2417 16.1899 59.0154 17.1171 59.031 18.056C59.0285 18.4807 59.0714 18.9045 59.1589 19.32C59.2707 19.8704 59.471 20.399 59.7521 20.8852C60.2224 21.7066 60.9132 22.38 61.7463 22.8292C62.5903 23.2902 63.5532 23.5199 64.6349 23.5183C65.3367 23.5249 66.035 23.417 66.702 23.1989C67.308 23.0014 67.8737 22.697 68.3723 22.2999C68.8222 21.9495 69.1742 21.4889 69.3944 20.9628L67.8152 20.123ZM61.7739 15.8517C62.0327 15.4531 62.3852 15.1241 62.8007 14.8934C63.2232 14.6581 63.6997 14.537 64.1833 14.5421C64.6625 14.5329 65.1364 14.6443 65.5614 14.866C65.9577 15.0798 66.2888 15.3967 66.5198 15.7832C66.757 16.1805 66.903 16.6686 66.9578 17.2574H61.2394C61.3157 16.7562 61.498 16.277 61.7739 15.8517V15.8517Z" fill="white"/>
<path d="M77.5577 13.2188L74.6511 21.337H74.6098L71.7212 13.2188H69.499L73.2821 23.135H75.9561L79.7848 13.2188H77.5577Z" fill="white"/>
<path d="M88.7806 13.2188L85.8737 21.337H85.8372L82.9486 13.2188H80.7217L84.5093 23.135H87.1838L91.0079 13.2188H88.7806Z" fill="white"/>
<path d="M101.529 13.2188H99.4207V19.2516C99.4273 19.6104 99.3619 19.967 99.2283 20.3002C99.0947 20.6333 98.8957 20.9363 98.6429 21.1912C98.3902 21.446 98.0888 21.6476 97.7568 21.784C97.4248 21.9203 97.0687 21.9887 96.7098 21.985C96.271 21.9959 95.8379 21.8836 95.4595 21.661C95.1071 21.4454 94.8236 21.1335 94.6427 20.762C94.4415 20.36 94.3398 19.9156 94.3461 19.466V13.2188H92.2195V19.603C92.2053 20.3593 92.3794 21.1073 92.7262 21.7796C93.0531 22.3965 93.5422 22.9125 94.1407 23.2719C94.7705 23.643 95.4907 23.8324 96.2216 23.8192C96.8648 23.8204 97.4982 23.662 98.0652 23.3583C98.6202 23.0758 99.0885 22.6485 99.4207 22.1216H99.4434V22.7837C99.4549 23.3439 99.3163 23.8969 99.0418 24.3854C98.7728 24.8419 98.3674 25.2026 97.8827 25.4168C97.3716 25.654 96.7737 25.7681 96.0848 25.7681C95.595 25.7739 95.1077 25.6983 94.6427 25.5445C94.2141 25.4029 93.8117 25.1916 93.4518 24.9193C93.0916 24.6442 92.7865 24.3036 92.5526 23.9154L91.9365 26.2153C92.0633 26.3347 92.1975 26.446 92.3383 26.5484C92.8537 26.9175 93.432 27.1897 94.0448 27.3516C94.7412 27.5392 95.4598 27.6313 96.181 27.6253C97.2762 27.6253 98.2269 27.4321 99.0331 27.0458C99.8077 26.6913 100.457 26.1106 100.895 25.3801C101.333 24.65 101.552 23.7905 101.552 22.8019L101.529 13.2188Z" fill="white"/>
</svg>
