<svg width="83" height="26" viewBox="0 0 83 26" fill="none" xmlns="http://www.w3.org/2000/svg">
<path d="M31.924 0H6.74589L3.37292 12.5889H15.9619C22.9145 12.5889 30.061 6.95272 31.924 0Z" fill="#1D323D"/>
<path d="M0 25.1749H25.1778L28.5511 12.5859H15.9621C9.00947 12.5859 1.86294 18.2222 0 25.1749Z" fill="#1D323D"/>
<path d="M40.5287 17.1678L47.1951 9.22641V7.52393H38.9958L38.5904 9.04222V9.05327H45.1132L38.432 16.9798V18.6824H46.9445L47.3534 17.1678H40.5287Z" fill="#1D323D"/>
<path d="M54.7602 16.2528C54.5612 16.6434 54.2334 16.9604 53.7765 17.2073C53.3086 17.4573 52.7852 17.5853 52.2547 17.5794C51.778 17.5871 51.3061 17.4837 50.8764 17.2773C50.4828 17.0894 50.1449 16.8024 49.8959 16.4444C49.6468 16.0779 49.4935 15.6547 49.45 15.2136H55.8144C55.8254 15.1104 55.8364 14.9999 55.8475 14.8819C55.8584 14.7679 55.8622 14.6498 55.8622 14.5356C55.8511 13.7285 55.6779 13.0062 55.3426 12.3761C55.0202 11.7594 54.528 11.2479 53.9241 10.9021C53.2905 10.5447 52.573 10.3628 51.8456 10.3751C51.035 10.3751 50.3127 10.5533 49.6787 10.9097C49.3791 11.0747 49.1048 11.2819 48.8643 11.5252C48.5991 11.785 48.3742 12.0831 48.1972 12.4095C47.8367 13.0767 47.654 13.8254 47.6666 14.5836C47.6646 14.9266 47.6992 15.2688 47.7699 15.6044C47.8601 16.0488 48.0219 16.4757 48.2489 16.8683C48.6287 17.5316 49.1866 18.0754 49.8593 18.4382C50.5409 18.8104 51.3185 18.9959 52.192 18.9947C52.7587 19 53.3226 18.9129 53.8613 18.7367C54.3506 18.5772 54.8074 18.3314 55.2101 18.0108C55.5734 17.7277 55.8576 17.3559 56.0354 16.931L54.7602 16.2528ZM49.8816 12.8036C50.0906 12.4817 50.3753 12.216 50.7108 12.0297C51.0519 11.8396 51.4368 11.7418 51.8273 11.746C52.2143 11.7385 52.597 11.8285 52.9402 12.0076C53.2602 12.1802 53.5276 12.4361 53.7141 12.7483C53.9057 13.069 54.0236 13.4632 54.0678 13.9387H49.4499C49.5116 13.5339 49.6588 13.147 49.8816 12.8036Z" fill="#1D323D"/>
<path d="M62.6284 10.6763L60.2812 17.2321H60.2479L57.9152 10.6763H56.1207L59.1757 18.684H61.3351L64.4269 10.6763H62.6284Z" fill="#1D323D"/>
<path d="M71.6901 10.6763L69.3427 17.2321H69.3132L66.9805 10.6763H65.1822L68.2408 18.684H70.4006L73.4887 10.6763H71.6901Z" fill="#1D323D"/>
<path d="M81.9835 10.6763H80.2811V15.548C80.2865 15.8378 80.2336 16.1258 80.1258 16.3948C80.0179 16.6638 79.8571 16.9085 79.653 17.1143C79.4489 17.3201 79.2056 17.4829 78.9374 17.593C78.6693 17.7031 78.3818 17.7583 78.092 17.7554C77.7376 17.7641 77.3878 17.6735 77.0823 17.4937C76.7977 17.3196 76.5688 17.0677 76.4227 16.7678C76.2602 16.4431 76.1781 16.0842 76.1832 15.7212V10.6763H74.4659V15.8318C74.4544 16.4425 74.595 17.0466 74.875 17.5895C75.139 18.0877 75.534 18.5043 76.0173 18.7946C76.5259 19.0942 77.1075 19.2472 77.6977 19.2365C78.2171 19.2375 78.7286 19.1096 79.1865 18.8644C79.6347 18.6362 80.0129 18.2912 80.2811 17.8657H80.2994V18.4003C80.3088 18.8527 80.1968 19.2993 79.9751 19.6938C79.7579 20.0624 79.4305 20.3537 79.0392 20.5267C78.6264 20.7183 78.1436 20.8103 77.5872 20.8103C77.1917 20.815 76.7982 20.754 76.4227 20.6298C76.0766 20.5154 75.7517 20.3448 75.461 20.1249C75.1701 19.9028 74.9238 19.6277 74.7349 19.3142L74.2373 21.1715C74.3397 21.268 74.4481 21.3578 74.5618 21.4405C74.978 21.7385 75.445 21.9583 75.9399 22.0891C76.5022 22.2406 77.0826 22.315 77.6649 22.3101C78.5493 22.3101 79.3171 22.1541 79.9681 21.8421C80.5936 21.5559 81.1178 21.087 81.4716 20.4971C81.8254 19.9074 82.0022 19.2134 82.0022 18.415L81.9835 10.6763Z" fill="#1D323D"/>
</svg>
