<svg width="51" height="22" viewBox="0 0 51 22" fill="none" xmlns="http://www.w3.org/2000/svg">
<path d="M9.71216 2.78502C10.3115 2.03531 10.7183 1.02867 10.611 0C9.73359 0.0436294 8.66286 0.578869 8.04296 1.32917C7.48635 1.97168 6.99371 3.02047 7.12214 4.00602C8.1071 4.09145 9.09115 3.51369 9.71216 2.78502Z" fill="white"/>
<path d="M10.5995 4.20102C9.1691 4.11582 7.95292 5.01284 7.26983 5.01284C6.58637 5.01284 5.54034 4.24396 4.40897 4.26468C2.93643 4.28631 1.57008 5.11889 0.822823 6.4431C-0.71415 9.09216 0.417217 13.0216 1.91184 15.1792C2.63767 16.2466 3.51241 17.4218 4.66501 17.3796C5.75403 17.3369 6.18088 16.6745 7.50463 16.6745C8.82741 16.6745 9.21191 17.3796 10.3647 17.3582C11.5602 17.3369 12.3076 16.2903 13.0334 15.2219C13.866 14.0051 14.2069 12.8302 14.2283 12.7657C14.2069 12.7444 11.9231 11.8683 11.9019 9.24122C11.8804 7.04156 13.695 5.99528 13.7804 5.93039C12.7556 4.41484 11.1546 4.24396 10.5995 4.20102Z" fill="white"/>
<path d="M23.054 1.21875C26.1629 1.21875 28.3278 3.36177 28.3278 6.48185C28.3278 9.61306 26.1184 11.7672 22.976 11.7672H19.5339V17.2413H17.0469V1.21875H23.054V1.21875ZM19.5339 9.67967H22.3875C24.5528 9.67967 25.7851 8.51392 25.7851 6.49298C25.7851 4.47226 24.5528 3.31744 22.3986 3.31744H19.5339V9.67967Z" fill="white"/>
<path d="M28.9785 13.9236C28.9785 11.8804 30.5441 10.6258 33.3202 10.4703L36.5178 10.2816V9.38231C36.5178 8.08313 35.6406 7.3059 34.1752 7.3059C32.7869 7.3059 31.9208 7.97198 31.7101 9.01586H29.445C29.5782 6.90603 31.3768 5.35156 34.2639 5.35156C37.0953 5.35156 38.905 6.85056 38.905 9.19341V17.2435H36.6065V15.3226H36.5513C35.874 16.6218 34.3971 17.4434 32.8649 17.4434C30.5775 17.4434 28.9785 16.0221 28.9785 13.9236ZM36.5178 12.8688V11.9472L33.6419 12.1248C32.2095 12.2248 31.3991 12.8577 31.3991 13.857C31.3991 14.8784 32.2429 15.5447 33.531 15.5447C35.2075 15.5447 36.5178 14.3899 36.5178 12.8688Z" fill="white"/>
<path d="M41.0738 21.5407V19.5975C41.2511 19.6418 41.6508 19.6418 41.8508 19.6418C42.9611 19.6418 43.5608 19.1756 43.927 17.9764C43.927 17.9541 44.1382 17.2658 44.1382 17.2547L39.9189 5.5625H42.5169L45.4707 15.0673H45.5149L48.4687 5.5625H51.0003L46.6251 17.8541C45.6262 20.6857 44.4714 21.5962 42.0508 21.5962C41.8508 21.5962 41.2511 21.5739 41.0738 21.5407Z" fill="white"/>
</svg>
