<svg width="23" height="20" viewBox="0 0 23 20" fill="none" xmlns="http://www.w3.org/2000/svg">
<path d="M6.53033 0.927486C6.23744 0.634594 5.76256 0.634594 5.46967 0.927486L0.696698 5.70046C0.403805 5.99335 0.403805 6.46822 0.696699 6.76112C0.989592 7.05401 1.46447 7.05401 1.75736 6.76112L6 2.51848L10.2426 6.76112C10.5355 7.05401 11.0104 7.05401 11.3033 6.76112C11.5962 6.46822 11.5962 5.99335 11.3033 5.70046L6.53033 0.927486ZM6.75 18.2578L6.75 1.45782L5.25 1.45782L5.25 18.2578L6.75 18.2578Z" fill="black"/>
<path d="M17.5303 18.7913C17.2374 19.0842 16.7626 19.0842 16.4697 18.7913L11.6967 14.0183C11.4038 13.7254 11.4038 13.2505 11.6967 12.9576C11.9896 12.6647 12.4645 12.6647 12.7574 12.9576L17 17.2003L21.2426 12.9576C21.5355 12.6647 22.0104 12.6647 22.3033 12.9576C22.5962 13.2505 22.5962 13.7254 22.3033 14.0183L17.5303 18.7913ZM17.75 1.46094L17.75 18.2609L16.25 18.2609L16.25 1.46094L17.75 1.46094Z" fill="black"/>
</svg>
