<svg width="23" height="24" viewBox="0 0 23 24" fill="none" xmlns="http://www.w3.org/2000/svg">
<path d="M11.7832 23.1743C9.5647 23.1743 7.39606 22.5028 5.55147 21.2446C3.70688 19.9864 2.26921 18.1981 1.42024 16.1058C0.571266 14.0135 0.349137 11.7112 0.781938 9.49001C1.21474 7.26884 2.28303 5.22857 3.85172 3.6272C5.42041 2.02583 7.41905 0.935277 9.59488 0.49346C11.7707 0.051642 14.026 0.278399 16.0756 1.14506C18.1252 2.01171 19.877 3.47934 21.1096 5.36236C22.3421 7.24537 22.9999 9.4592 22.9999 11.7239C22.9965 14.7597 21.8137 17.6701 19.7109 19.8168C17.6081 21.9634 14.757 23.1709 11.7832 23.1743ZM11.7832 1.31439C9.76638 1.31439 7.79488 1.9249 6.11799 3.06871C4.44109 4.21252 3.13411 5.83825 2.36232 7.74034C1.59053 9.64243 1.38859 11.7354 1.78205 13.7547C2.17551 15.7739 3.14668 17.6287 4.57276 19.0845C5.99885 20.5403 7.81579 21.5317 9.79382 21.9334C11.7719 22.335 13.8221 22.1289 15.6854 21.341C17.5487 20.5531 19.1412 19.2189 20.2617 17.5071C21.3822 15.7952 21.9802 13.7827 21.9802 11.7239C21.9771 8.96408 20.9018 6.31823 18.9901 4.36676C17.0785 2.41529 14.4866 1.31756 11.7832 1.31439Z" fill="#9499A4"/>
<path d="M11.784 13.806C10.8764 13.806 9.98926 13.5313 9.23466 13.0166C8.48005 12.5019 7.89191 11.7703 7.54461 10.9144C7.1973 10.0584 7.10643 9.11657 7.28348 8.20792C7.46054 7.29926 7.89757 6.4646 8.53931 5.80949C9.18104 5.15439 9.99867 4.70825 10.8888 4.52751C11.7789 4.34677 12.7015 4.43953 13.54 4.79407C14.3785 5.14861 15.0951 5.74901 15.5993 6.51933C16.1035 7.28965 16.3727 8.19531 16.3727 9.12177C16.3712 10.3637 15.8873 11.5542 15.027 12.4324C14.1668 13.3105 13.0005 13.8045 11.784 13.806ZM11.784 5.47845C11.0781 5.47845 10.3881 5.69213 9.80118 6.09246C9.21426 6.49279 8.75682 7.0618 8.48669 7.72753C8.21656 8.39326 8.14589 9.12581 8.2836 9.83255C8.42131 10.5393 8.76122 11.1885 9.26035 11.698C9.75947 12.2075 10.3954 12.5545 11.0877 12.6951C11.78 12.8357 12.4976 12.7635 13.1498 12.4878C13.8019 12.212 14.3593 11.745 14.7515 11.1459C15.1436 10.5468 15.353 9.84235 15.353 9.12177C15.3519 8.15584 14.9755 7.22979 14.3064 6.54677C13.6374 5.86376 12.7302 5.47955 11.784 5.47845Z" fill="#9499A4"/>
<path d="M19.3817 19.1035C18.7826 17.5449 17.7374 16.2067 16.3823 15.2635C15.0272 14.3202 13.4251 13.8157 11.7849 13.8157C10.1448 13.8157 8.54272 14.3202 7.1876 15.2635C5.83249 16.2067 4.78723 17.5449 4.18814 19.1035L3.23828 18.723C3.91225 16.9693 5.08824 15.4637 6.61289 14.4024C8.13754 13.3411 9.94008 12.7734 11.7854 12.7734C13.6308 12.7734 15.4334 13.3411 16.958 14.4024C18.4827 15.4637 19.6586 16.9693 20.3326 18.723L19.3817 19.1035Z" fill="#9499A4"/>
</svg>
