<svg width="40" height="32" viewBox="0 0 40 32" fill="none" xmlns="http://www.w3.org/2000/svg">
<path d="M39.5324 0H8.3536L4.17676 15.5892H19.766C28.3757 15.5892 37.2254 8.60975 39.5324 0Z" fill="#1D323D"/>
<path d="M0 31.1749H31.1784L35.3556 15.5857H19.7663C11.1567 15.5857 2.30693 22.5652 0 31.1749Z" fill="#1D323D"/>
<path d="M50.193 21.2538L58.4483 11.4197V9.31146H48.2948L47.7928 11.1916V11.2053H55.8702L47.5967 21.0209V23.1293H58.138L58.6444 21.2538H50.193Z" fill="#1D323D"/>
<path d="M67.8152 20.1219C67.5688 20.6057 67.1628 20.9981 66.5971 21.3039C66.0176 21.6135 65.3695 21.772 64.7125 21.7647C64.1223 21.7742 63.5379 21.6461 63.0057 21.3905C62.5184 21.1579 62.1 20.8025 61.7916 20.3592C61.4831 19.9053 61.2933 19.3812 61.2395 18.835H69.1206C69.1342 18.7073 69.1479 18.5704 69.1616 18.4243C69.1752 18.2831 69.1799 18.1368 69.1799 17.9954C69.1661 16.996 68.9517 16.1016 68.5364 15.3213C68.1372 14.5576 67.5276 13.9242 66.7798 13.496C65.9952 13.0534 65.1067 12.8281 64.206 12.8434C63.2022 12.8434 62.3078 13.0641 61.5226 13.5054C61.1516 13.7097 60.8119 13.9663 60.5141 14.2675C60.1857 14.5893 59.9073 14.9585 59.6881 15.3627C59.2417 16.1888 59.0154 17.116 59.031 18.0549C59.0285 18.4796 59.0714 18.9034 59.1589 19.3189C59.2707 19.8693 59.471 20.3979 59.7521 20.8841C60.2224 21.7055 60.9132 22.3789 61.7463 22.8281C62.5903 23.2891 63.5532 23.5188 64.6349 23.5172C65.3367 23.5238 66.035 23.4159 66.702 23.1978C67.308 23.0003 67.8737 22.6959 68.3723 22.2988C68.8222 21.9484 69.1742 21.4878 69.3944 20.9617L67.8152 20.1219ZM61.7739 15.8506C62.0327 15.452 62.3852 15.123 62.8007 14.8923C63.2232 14.657 63.6997 14.5359 64.1833 14.541C64.6625 14.5318 65.1364 14.6432 65.5614 14.8649C65.9577 15.0787 66.2888 15.3956 66.5198 15.7821C66.757 16.1794 66.903 16.6675 66.9578 17.2563H61.2394C61.3157 16.7551 61.498 16.2759 61.7739 15.8506V15.8506Z" fill="#1D323D"/>
<path d="M77.5577 13.2191L74.6511 21.3374H74.6098L71.7212 13.2191H69.499L73.2821 23.1354H75.9561L79.7848 13.2191H77.5577Z" fill="#1D323D"/>
<path d="M88.7806 13.2191L85.8737 21.3374H85.8372L82.9486 13.2191H80.7217L84.5093 23.1354H87.1838L91.0079 13.2191H88.7806Z" fill="#1D323D"/>
<path d="M101.529 13.2191H99.4207V19.2519C99.4273 19.6108 99.3619 19.9674 99.2283 20.3005C99.0947 20.6337 98.8957 20.9367 98.6429 21.1915C98.3902 21.4464 98.0888 21.648 97.7568 21.7843C97.4248 21.9207 97.0687 21.989 96.7098 21.9854C96.271 21.9962 95.8379 21.884 95.4595 21.6613C95.1071 21.4458 94.8236 21.1339 94.6427 20.7624C94.4415 20.3604 94.3398 19.9159 94.3461 19.4664V13.2191H92.2195V19.6033C92.2053 20.3597 92.3794 21.1077 92.7262 21.78C93.0531 22.3969 93.5422 22.9128 94.1407 23.2723C94.7705 23.6433 95.4907 23.8327 96.2216 23.8195C96.8648 23.8207 97.4982 23.6624 98.0652 23.3587C98.6202 23.0761 99.0885 22.6489 99.4207 22.122H99.4434V22.784C99.4549 23.3442 99.3163 23.8973 99.0418 24.3858C98.7728 24.8423 98.3674 25.203 97.8827 25.4171C97.3716 25.6544 96.7737 25.7684 96.0848 25.7684C95.595 25.7742 95.1077 25.6987 94.6427 25.5449C94.2141 25.4032 93.8117 25.192 93.4518 24.9196C93.0916 24.6446 92.7865 24.304 92.5526 23.9157L91.9365 26.2157C92.0633 26.3351 92.1975 26.4463 92.3383 26.5487C92.8537 26.9178 93.432 27.19 94.0448 27.352C94.7412 27.5396 95.4598 27.6317 96.181 27.6256C97.2762 27.6256 98.2269 27.4325 99.0331 27.0461C99.8077 26.6917 100.457 26.111 100.895 25.3805C101.333 24.6503 101.552 23.7909 101.552 22.8022L101.529 13.2191Z" fill="#1D323D"/>
</svg>
