<svg width="20" height="20" viewBox="0 0 20 20" fill="none" xmlns="http://www.w3.org/2000/svg">
<path fill-rule="evenodd" clip-rule="evenodd" d="M0 10C0 4.47713 4.47713 0 10 0C15.5229 0 20 4.47713 20 10C20 15.5229 15.5229 20 10 20C4.47713 20 0 15.5229 0 10ZM10 1.53846C5.32682 1.53846 1.53846 5.32682 1.53846 10C1.53846 14.6732 5.32682 18.4615 10 18.4615C14.6732 18.4615 18.4615 14.6732 18.4615 10C18.4615 5.32682 14.6732 1.53846 10 1.53846Z" fill="#717171"/>
<path fill-rule="evenodd" clip-rule="evenodd" d="M9.9997 14.8737C9.57488 14.8737 9.23047 14.5293 9.23047 14.1045V8.97626C9.23047 8.55144 9.57488 8.20703 9.9997 8.20703C10.4245 8.20703 10.7689 8.55144 10.7689 8.97626V14.1045C10.7689 14.5293 10.4245 14.8737 9.9997 14.8737Z" fill="#717171"/>
<path d="M9.23047 5.89423C9.23047 5.46941 9.57488 5.125 9.9997 5.125C10.4245 5.125 10.7689 5.46941 10.7689 5.89423C10.7689 6.31905 10.4245 6.66346 9.9997 6.66346C9.57488 6.66346 9.23047 6.31905 9.23047 5.89423Z" fill="#717171"/>
</svg>
