<svg width="20" height="19" viewBox="0 0 20 19" fill="none" xmlns="http://www.w3.org/2000/svg">
<path d="M17.3952 3.22869H10.1091L8.65592 1.09799C8.61321 1.03555 8.55026 0.999661 8.48398 1H2.60477C1.71891 1.00126 1.00102 1.88612 1 2.97802V16.022C1.00102 17.1139 1.71891 17.9987 2.60477 18H17.3952C18.2811 17.9987 18.999 17.1139 19 16.022V5.2067C18.999 4.11481 18.2811 3.22994 17.3952 3.22869ZM18.5526 16.022C18.5516 16.8093 18.034 17.4473 17.3952 17.4485H2.60477C1.966 17.4473 1.44843 16.8093 1.44741 16.022V2.97802C1.44843 2.19069 1.966 1.55273 2.60477 1.55148H8.3749L9.82806 3.68217C9.87077 3.74461 9.93372 3.7805 10 3.78016H17.3952C18.034 3.78142 18.5516 4.41937 18.5526 5.2067V16.022Z" fill="#717171" stroke="#717171" stroke-width="0.8"/>
</svg>
