<svg width="20" height="21" viewBox="0 0 20 21" fill="none" xmlns="http://www.w3.org/2000/svg">
<path d="M18.5639 17.3351C18.6795 17.3351 18.7905 17.2993 18.8723 17.2357C18.954 17.1721 19 17.0858 19 16.9958V1.33929C19 1.2493 18.9541 1.163 18.8723 1.09937C18.7905 1.03575 18.6795 1 18.5639 1H4.00518C3.20841 1.00073 2.44454 1.2473 1.88116 1.68562C1.31778 2.12394 1.00088 2.7182 1 3.33806V18.3283C1.00066 18.7715 1.22728 19.1964 1.63013 19.5098C2.03298 19.8232 2.57918 19.9995 3.14889 20H18.5639C18.6781 19.9983 18.7869 19.9618 18.867 19.8984C18.947 19.8349 18.9918 19.7496 18.9918 19.6607C18.9918 19.5718 18.947 19.4865 18.8669 19.423C18.7869 19.3596 18.6781 19.3231 18.5638 19.3214H18.1277V17.3351H18.5639ZM17.2555 19.3214H3.14889C2.81279 19.3185 2.49174 19.2125 2.25541 19.0266C2.01908 18.8407 1.88654 18.5897 1.88654 18.3282C1.88655 18.0667 2.01911 17.8158 2.25545 17.6299C2.49179 17.4439 2.81284 17.338 3.14895 17.3351H17.2555V19.3214ZM3.14889 16.6565C2.68798 16.6576 2.23999 16.7751 1.87224 16.9912V3.33804C1.87287 2.8981 2.09778 2.47631 2.49764 2.16521C2.89751 1.85411 3.43966 1.6791 4.00518 1.67857H18.1277V16.6565H3.14889Z" fill="#717171" stroke="#717171" stroke-width="0.4"/>
<path d="M8.7484 6.45555C8.31089 6.71275 7.53683 8.25198 8.36937 8.35958C8.46447 8.35957 8.55567 8.32179 8.62291 8.25455C8.69016 8.1873 8.72794 8.0961 8.72794 8.00101C8.72783 7.76919 8.79098 7.54175 8.91061 7.34319C9.03024 7.14463 9.20179 6.98248 9.40678 6.87424C9.61176 6.76599 9.84241 6.71575 10.0738 6.72894C10.3053 6.74212 10.5287 6.81822 10.7201 6.94904C10.9115 7.07986 11.0635 7.26043 11.1598 7.47129C11.2561 7.68215 11.293 7.91529 11.2666 8.14559C11.2402 8.37589 11.1514 8.59461 11.0098 8.77816C10.8682 8.96171 10.6792 9.10314 10.4632 9.18719C10.2244 9.27567 10.018 9.43454 9.87144 9.64281C9.72485 9.85107 9.64492 10.0989 9.64222 10.3536V11.5286C9.64222 11.6237 9.68 11.7149 9.74725 11.7821C9.81449 11.8494 9.90569 11.8871 10.0008 11.8871C10.0959 11.8871 10.1871 11.8494 10.2543 11.7821C10.3216 11.7149 10.3594 11.6237 10.3594 11.5286V10.3536C10.3628 10.2433 10.3995 10.1367 10.4647 10.0476C10.5299 9.95864 10.6205 9.89146 10.7246 9.85496C13.4916 8.56768 11.2391 4.68269 8.7484 6.45555Z" fill="#717171" stroke="#717171" stroke-width="0.4"/>
</svg>
