<svg width="17" height="17" viewBox="0 0 17 17" fill="none" xmlns="http://www.w3.org/2000/svg">
<g clip-path="url(#clip0_5528_26079)">
<path d="M15.5706 8.06536C15.3451 7.83996 15.0715 7.72734 14.7494 7.72734H14.3633V5.40903C14.3633 3.92799 13.8322 2.65633 12.7696 1.59382C11.7072 0.531274 10.4356 0 8.95439 0C7.47318 0 6.20139 0.531274 5.13901 1.59378C4.07646 2.65633 3.54536 3.92795 3.54536 5.40903V7.72734H3.15905C2.83719 7.72734 2.56346 7.83996 2.33806 8.06536C2.11266 8.29059 2 8.56432 2 8.88648V15.8409C2 16.1628 2.1127 16.4366 2.33806 16.6621C2.56346 16.8873 2.83719 17 3.15905 17H14.7497C15.0718 17 15.3454 16.8874 15.5708 16.6621C15.796 16.4366 15.9089 16.1628 15.9089 15.8409V8.88635C15.9091 8.56445 15.796 8.29076 15.5706 8.06536ZM12.0452 7.72734H5.86354V5.40903C5.86354 4.55585 6.16544 3.82735 6.76912 3.22376C7.37287 2.62009 8.10125 2.31831 8.95452 2.31831C9.80786 2.31831 10.5361 2.62004 11.1399 3.22376C11.7434 3.8273 12.0452 4.55585 12.0452 5.40903V7.72734Z" fill="#1D323D"/>
<path d="M6.23297 14V10.845H5.18797V10.5H7.69797V10.845H6.65297V14H6.23297ZM8.08582 14V10.5H8.50582V13.665H10.1358V14H8.08582ZM11.5514 14.06C11.2947 14.06 11.0714 14.0133 10.8814 13.92C10.6914 13.8267 10.5447 13.6967 10.4414 13.53C10.3381 13.3633 10.2864 13.17 10.2864 12.95H10.7264C10.7264 13.0867 10.7581 13.2133 10.8214 13.33C10.8847 13.4433 10.9764 13.535 11.0964 13.605C11.2197 13.6717 11.3714 13.705 11.5514 13.705C11.7881 13.705 11.9714 13.6483 12.1014 13.535C12.2314 13.4217 12.2964 13.28 12.2964 13.11C12.2964 12.97 12.2664 12.8583 12.2064 12.775C12.1464 12.6883 12.0647 12.6183 11.9614 12.565C11.8614 12.5117 11.7447 12.465 11.6114 12.425C11.4814 12.385 11.3447 12.34 11.2014 12.29C10.9314 12.1967 10.7314 12.0817 10.6014 11.945C10.4714 11.805 10.4064 11.6233 10.4064 11.4C10.4031 11.2133 10.4464 11.0483 10.5364 10.905C10.6264 10.7583 10.7531 10.645 10.9164 10.565C11.0831 10.4817 11.2797 10.44 11.5064 10.44C11.7297 10.44 11.9231 10.4817 12.0864 10.565C12.2531 10.6483 12.3814 10.7633 12.4714 10.91C12.5647 11.0567 12.6131 11.2233 12.6164 11.41H12.1764C12.1764 11.3133 12.1514 11.2183 12.1014 11.125C12.0514 11.0283 11.9747 10.95 11.8714 10.89C11.7714 10.83 11.6447 10.8 11.4914 10.8C11.3014 10.7967 11.1447 10.845 11.0214 10.945C10.9014 11.045 10.8414 11.1833 10.8414 11.36C10.8414 11.51 10.8831 11.625 10.9664 11.705C11.0531 11.785 11.1731 11.8517 11.3264 11.905C11.4797 11.955 11.6564 12.0133 11.8564 12.08C12.0231 12.14 12.1731 12.21 12.3064 12.29C12.4397 12.37 12.5431 12.4733 12.6164 12.6C12.6931 12.7267 12.7314 12.8883 12.7314 13.085C12.7314 13.2517 12.6881 13.41 12.6014 13.56C12.5147 13.7067 12.3831 13.8267 12.2064 13.92C12.0331 14.0133 11.8147 14.06 11.5514 14.06Z" fill="white"/>
</g>
<defs>
<clipPath id="clip0_5528_26079">
<rect width="17" height="17" fill="white"/>
</clipPath>
</defs>
</svg>
