<svg width="20" height="20" viewBox="0 0 20 20" fill="none" xmlns="http://www.w3.org/2000/svg">
<path d="M17.2442 14.7711L17.2933 15.0098L17.4261 14.8054C18.3252 13.4204 18.85 11.771 18.85 10C18.85 5.11977 14.8799 1.15 10 1.15C5.11977 1.15 1.15 5.11977 1.15 10C1.15 11.771 1.67475 13.4204 2.57394 14.8054L2.70666 15.0098L2.75576 14.7711C3.2044 12.5899 4.62352 10.7018 6.6171 9.67324L6.72501 9.61757L6.64968 9.52234C6.07262 8.79284 5.725 7.87447 5.725 6.875C5.725 4.51773 7.64273 2.6 10 2.6C12.3573 2.6 14.275 4.51773 14.275 6.875C14.275 7.87447 13.9274 8.79284 13.3503 9.52234L13.275 9.61756L13.3829 9.67324C15.3762 10.7018 16.7956 12.5899 17.2442 14.7711ZM3.65533 16.1185L3.65446 16.1606L3.6839 16.1906C5.2909 17.8299 7.52816 18.85 10 18.85C12.4718 18.85 14.7091 17.8299 16.3161 16.1906L16.3455 16.1606L16.3447 16.1185C16.2926 13.6244 14.7684 11.3821 12.4845 10.4092L12.4344 10.3879L12.3893 10.4184C11.7068 10.8801 10.8844 11.15 10 11.15C9.11534 11.15 8.29318 10.8801 7.61072 10.4184L7.56561 10.3879L7.5155 10.4092C5.23161 11.3821 3.70741 13.6244 3.65533 16.1185ZM0.1 10C0.1 4.54148 4.54117 0.1 10 0.1C15.4585 0.1 19.9 4.54117 19.9 10C19.9 15.4588 15.4585 19.9 10 19.9C4.54117 19.9 0.1 15.4585 0.1 10ZM10 3.65C8.22165 3.65 6.775 5.09665 6.775 6.875C6.775 8.65335 8.22165 10.1 10 10.1C11.7784 10.1 13.225 8.65335 13.225 6.875C13.225 5.09665 11.7784 3.65 10 3.65Z" fill="#717171" stroke="#717171" stroke-width="0.2"/>
</svg>
